# xmcd
#
# Track frame offsets:
#	150
#	6262
#	23122
#	40797
#	57394
#	79432
#	97848
#	114531
#	132347
#	148867
#	168756
#	188259
#
# Disc length: 2752 seconds
#
# Revision: 1
# Processed by: cddbd v1.5.2PL0 Copyright (c) Steve Scherf et al.
# Submitted via: audiograbber 1.83.01
#
DISCID=950abe0c
DTITLE=Sietta - The Seventh Passenger
DYEAR=2011
DGENRE=Soul
TTITLE0=Blind Man
TTITLE1=What Am I Suppossed To Do
TTITLE2=No Longer Hurt
TTITLE3=My Man
TTITLE4=Strangers
TTITLE5=Dark Passenger
TTITLE6=Arrived
TTITLE7=Doormat
TTITLE8=You Gave Me
TTITLE9=I Was A Queen
TTITLE10=Silence
TTITLE11=Echoes
EXTD=
EXTT0=
EXTT1=
EXTT2=
EXTT3=
EXTT4=
EXTT5=
EXTT6=
EXTT7=
EXTT8=
EXTT9=
EXTT10=
EXTT11=
PLAYORDER=
